<?xml version="1.0" encoding="UTF-8"?>
<svg id="Layer_2" data-name="Layer 2" xmlns="http://www.w3.org/2000/svg" viewBox="0 0 755 232.08">
  <defs>
    <style>
      .cls-1 {
        fill: #b6ff2e;
      }

      .cls-1, .cls-2 {
        fill-rule: evenodd;
      }

      .cls-2 {
        fill: #fff;
      }
    </style>
  </defs>
  <g id="Layer_1-2" data-name="Layer 1">
    <path class="cls-2" d="M116,.06c47.67-.17,95.33,0,143,.5,4.21,3.07,5.04,6.9,2.5,11.5-22.34,21.67-44.84,43.5-67.5,65.5-6.86,2.84-14.03,4.34-21.5,4.5-9.04-.42-18.37-.75-28-1-6.09.81-12.25,1.31-18.5,1.5-10.47,6.97-19.47,15.47-27,25.5.22,1.44.72,2.77,1.5,4,7.98,5.99,15.32,12.65,22,20,.93,3.35.1,6.18-2.5,8.5-26.91,1.65-53.91,1.98-81,1-3.55-.77-6.88-2.11-10-4-9.85-8.19-19.35-16.69-28.5-25.5-.67-2.67-.67-5.33,0-8C33.67,71.23,67.17,38.73,101,6.56c4.88-2.78,9.88-4.95,15-6.5Z"/>
    <path class="cls-2" d="M370,129.06c-3.61-1.32-7.61-1.99-12-2-4.39,0-8.39.68-12,2,.09,14.83.09,29.49,0,44h-26V45.06c18.12.03,35.28-.3,51.5-1,7.14.69,14.3,1.52,21.5,2.5,19.82,5.48,30.48,18.48,32,39-1.68,19.67-11.68,33-30,40,11.13,15.08,21.29,30.58,30.5,46.5-4.59.65-9.25.99-14,1-5.27.12-10.44-.38-15.5-1.5-8.92-14.07-17.59-28.24-26-42.5ZM381,66.06c1.62.54,3.28.87,5,1,.79,1.6,2.12,2.27,4,2,8.08,7.14,10.24,15.8,6.5,26-1.33,2.16-2.83,4.16-4.5,6-1.53-.07-2.53.59-3,2-2,.67-4,1.33-6,2-11.82.51-23.48.85-35,1-.62-.11-1.12-.44-1.5-1-.5-12.66-.67-25.33-.5-38,11.59-.98,23.25-1.31,35-1Z"/>
    <path class="cls-2" d="M533,44.06c8.25-.32,16.42.02,24.5,1,.83,42.57.66,85.07-.5,127.5-8.25.82-16.41.65-24.5-.5-.83-42.74-.66-85.4.5-128Z"/>
    <path class="cls-2" d="M381,66.06c-11.75-.31-23.41.02-35,1,5.46-1.33,11.29-2,17.5-2,6.01,0,11.84.33,17.5,1Z"/>
    <path class="cls-2" d="M386,67.06c1.65.16,2.99.83,4,2-1.88.27-3.21-.4-4-2Z"/>
    <path class="cls-2" d="M458,134.06c-2.28-.42-3.95.24-5,2,3.25,11.41,10.75,18.08,22.5,20,12.15.39,23.15-3.27,33-11,4.27,3.69,7.43,8.19,9.5,13.5-6.91,8.63-15.9,13.96-27,16-13.64,2.94-26.64,1.44-39-4.5-.47-1.41-1.47-2.07-3-2-4.56-1.9-8.23-4.9-11-9,.07-1.53-.59-2.53-2-3-4.66-5.78-7.49-12.45-8.5-20-3.43-20.97,3.07-38.14,19.5-51.5,19.9-11.62,39.56-11.28,59,1,13.56,13.37,18.89,29.54,16,48.5h-64ZM498,113.06v3c-2.56-.3-4.89.03-7,1-11.93-.44-23.93-.6-36-.5.15-13.15,6.98-20.32,20.5-21.5,11.49.99,18.99,6.99,22.5,18Z"/>
    <path class="cls-2" d="M630,172.06c.16-3.68,0-7.35-.5-11-1.04.87-1.88,1.87-2.5,3-13.99,12.22-29.65,14.72-47,7.5-15.11-11.57-17.95-25.74-8.5-42.5,12.6-11.74,27.6-16.74,45-15,12.63,4.04,15.63.37,9-11-4.68-5.52-10.35-8.18-17-8-9.33,1.55-17.83,5.05-25.5,10.5-1,.67-2,.67-3,0-2.87-3.58-5.37-7.41-7.5-11.5-.78-1.44-.61-2.78.5-4,19.65-15.22,40.98-18.05,64-8.5,10.17,7.18,15.67,17.02,16.5,29.5.67,20,.67,40,0,60-3.74,1.29-7.74,1.96-12,2-4.02,0-7.85-.34-11.5-1ZM610,131.06c6.59-.29,12.76.05,18.5,1,1.21,12.47-4.29,20.3-16.5,23.5-5.89,1.04-11.56.37-17-2-6.35-8.54-4.68-15.21,5-20,3.45-.88,6.79-1.72,10-2.5Z"/>
    <path class="cls-2" d="M654,78.06c9.03-.33,18.03,0,27,1,7.35,19.9,15.19,39.57,23.5,59,9.03-19.4,17.53-39.07,25.5-59,8.31-1,16.64-1.33,25-1-.02,2.43-.52,4.76-1.5,7-15.39,36.45-31.06,72.78-47,109-10.52,13.4-24.18,18.73-41,16-.83-6.36-.66-12.69.5-19,7.21.52,13.88-1.32,20-5.5,5.15-4.79,6.98-10.62,5.5-17.5-12.78-29.89-25.28-59.89-37.5-90Z"/>
    <path class="cls-1" d="M239,99.06c0,.67-.33,1-1,1-9.92-.32-19.75.01-29.5,1-24.6-.66-49.1-1.33-73.5-2,34.62-1.31,69.29-1.31,104,0Z"/>
    <path class="cls-1" d="M135,99.06c24.4.67,48.9,1.34,73.5,2,9.75-.99,19.58-1.32,29.5-1,1.32,2.06.82,3.72-1.5,5-.33-.67-.67-1.33-1-2-.86,1.59-1.53,3.25-2,5-.9-1.2-2.07-2.04-3.5-2.5.95-.72,1.12-1.55.5-2.5-1.01.48-2.18.65-3.5.5,1.2.65,1.2,1.15,0,1.5-.64-3.3-1.81-3.63-3.5-1-4.78-1.26-9.62-1.26-14.5,0-2.58-.48-5.08-1.15-7.5-2-.91.83-1.58,1.83-2,3-.33-.67-.67-1.33-1-2-4.51.16-9.35.16-14.5,0-1.53.03-2.7.7-3.5,2-1.33-.67-2.67-1.33-4-2-.74,1.14-1.57,1.14-2.5,0-.69.53-1.19,1.19-1.5,2-3.68-2.24-7.18-2.41-10.5-.5.95.72,1.12,1.55.5,2.5-1.63-1.07-2.8-2.4-3.5-4,.03,2.08-.3,4.42-1,7-1.32-.17-2.49.16-3.5,1-.69-.53-1.19-1.19-1.5-2,1.07-.14,2.24-.14,3.5,0,1.02-4.5-.14-5.5-3.5-3-2.05-3.58-3.39-3.58-4,0-.89-.82-1.22-1.82-1-3-1.83.55-3.5.55-5,0-.69.53-1.19,1.19-1.5,2-1.77-1.92-3.94-2.42-6.5-1.5-.23,2.15.44,4.32,2,6.5,1.85,1.26,3.69,1.26,5.5,0,.49,1.97.66,3.97.5,6-1.72-.13-3.38-.46-5-1-3.72-2.72-6.72-6.05-9-10,.35-3.68,2.35-5.68,6-6Z"/>
    <path class="cls-1" d="M239,99.06c3.55,1.22,6.55,3.22,9,6-2,1.36-3.16.69-3.5-2-.6,3.58-1.93,3.92-4,1l-1.5,1.5c1.36,2.03,2.19,4.19,2.5,6.5.33-.67.67-1.33,1-2,1.07,1.12,2.24,2.12,3.5,3-1.19-.19-2.52.31-4,1.5,1.63.49,3.3.66,5,.5v-4h4c-.33,3,1,4.33,4,4,.15,1.05-.02,2.05-.5,3-2.06-1.67-4.23-2.83-6.5-3.5,1.15.91.99,1.75-.5,2.5-.33-.33-.67-.67-1-1-1.38,1.71-3.04,3.05-5,4-.62.95-.45,1.78.5,2.5-.93,2.65-2.26,2.99-4,1,1.76-.96,2.09-2.13,1-3.5-1.33,1-2.67,2-4,3,.67.33,1.33.67,2,1-.88.75-1.88,1.25-3,1.5,2.12.1,3.79.93,5,2.5-.77,1.21-1.61,1.21-2.5,0-1.54,1.59-1.54,2.92,0,4,1.43-2.17,2.93-2.34,4.5-.5-2.31,1.83-1.97,3.49,1,5-1.43-.31-2.77-.15-4,.5-1.2-.35-1.2-.85,0-1.5-1.28-.68-2.45-.52-3.5.5-1.83-2.83-3.33-2.67-4.5.5.61,2.06,1.61,2.89,3,2.5-1.41.74-2.74,1.58-4,2.5,2.4,1.02,4.73,2.18,7,3.5,1-.67,2-1.33,3-2,.69.52,1.19,1.19,1.5,2,.31-.81.81-1.48,1.5-2,.33.67.67,1.33,1,2,2.24-2.3,3.07-1.63,2.5,2-1.15-.96-2.15-.62-3,1-.33-.67-.67-1.33-1-2-.9,1.2-2.07,2.04-3.5,2.5,1.64,2.78.97,4.78-2,6,.67.33,1.33.67,2,1-1.33.33-2.67.67-4,1,.81.31,1.48.81,2,1.5-2.59,2.6-4.09,2.27-4.5-1-.31,1.27-.81,2.43-1.5,3.5,1.09,2.06,1.26,4.23.5,6.5-.09-3.35-1.26-3.85-3.5-1.5.67.33,1.33.67,2,1-2,.33-4,.67-6,1l1,1c-3.23,3.22-2.56,4.72,2,4.5-17.81,17.54-35.47,35.04-53,52.5-4.4,3.54-9.4,5.37-15,5.5-22.34.17-44.67,0-67-.5,4.23-.74,8.39-1.58,12.5-2.5,1.47-.08,3.13.25,5,1,1.33-.26,2.33-.92,3-2,.33.67.67,1.33,1,2,1.67-2.2,3.67-2.53,6-1,1.68-.56,3.01-1.56,4-3,.99,1.44,2.32,2.44,4,3,.69-2.39,1.69-2.39,3,0,.33-.67.67-1.33,1-2,3.16.53,6.32.87,9.5,1,.98-.48,1.81-1.14,2.5-2,.32,1.8.98,2.13,2,1,1.67,1,3.33,2,5,3l3.5-3.5c-3.69-.42-3.86-1.26-.5-2.5l4,4c1.12-2.12,2.62-3.96,4.5-5.5-1.25-1.82-2.41-1.66-3.5.5-.67-.67-.67-1.33,0-2,2.64-.34,5.14-.84,7.5-1.5-1.72-3.97-.72-4.31,3-1-1.23,1.18-1.23,2.35,0,3.5.74-1.49,1.41-2.99,2-4.5-2.67-.67-2.67-1.33,0-2l-1-1c1.75-.47,3.41-1.14,5-2-1.33-.67-1.33-1.33,0-2-.67-.33-1.33-.67-2-1,3.31-.63,6.64-1.96,10-4l-3-3c5.86-.57,6.52-2.9,2-7,1.63-.49,3.3-.66,5-.5v-3h-5c-.09-3.1.41-3.43,1.5-1,1.11-1.21,2.28-1.21,3.5,0,1.3-.59,2.13-1.59,2.5-3,.2,1.79,1.03,3.12,2.5,4,1.23-1.15,1.23-2.32,0-3.5,2.05-1.68,1.72-3.35-1-5,1.24-.46,2.08.04,2.5,1.5,1.07-.69,2.23-1.19,3.5-1.5-1.18-1.35-2.52-2.52-4-3.5,1-1.33,2-2.67,3-4,.41.76.58,1.76.5,3,1.31-2.39,2.31-2.39,3,0,.48-.95.65-1.95.5-3,1.37.16,2.71,0,4-.5-1.85-1.09-3.52-2.43-5-4,.67-.33,1.33-.67,2-1-1.33-.67-1.33-1.33,0-2-2.67-.67-2.67-1.33,0-2-1.98-.6-2.32-1.6-1-3-4.89-.33-5.55.67-2,3-1.23.78-2.56,1.28-4,1.5-1.07-1.2-2.07-2.37-3-3.5,1.51-1.73,3.18-2.89,5-3.5,1.22,1.21,2.39,1.21,3.5,0,2.55,2.69,3.72,2.03,3.5-2-1.32-.17-2.49.16-3.5,1l-1.5-1.5c4.06-3.05,3.73-3.88-1-2.5.15-1.05-.02-2.05-.5-3-.5,1.17-1.33,2-2.5,2.5,2.49,1.25,2.32,2.42-.5,3.5-1.07-.69-2.23-1.19-3.5-1.5,1.46-.42,1.96-1.26,1.5-2.5-1-1.33-2-1.33-3,0,.62-1.6.28-2.93-1-4l-1,1c-.48-3.28-2.15-6.28-5-9-1.84,1.33-2.34,1.17-1.5-.5l-1.5-1.5c-2.06,3.27-4.39,3.61-7,1-.84,1.51-2,2.01-3.5,1.5-.12-1.28.38-2.45,1.5-3.5,1.84,1.33,2.34,1.17,1.5-.5,3.13-1.58,6.46-3.58,10-6-2.85-2.34-2.52-4.17,1-5.5-1.27-1.55-2.93-2.55-5-3-.2,1.81-1.36,3.47-3.5,5-.6-1.98-1.6-2.32-3-1-.17-.33-.33-.67-.5-1,1.41-.74,2.74-1.58,4-2.5-2.3-1.16-1.96-2.16,1-3-1.29-.49-2.63-.66-4-.5.15,1.05-.02,2.05-.5,3-1.38-1.05-2.38-2.38-3-4-.33,1-.67,2-1,3-.42-1.46-1.26-1.96-2.5-1.5.79,1.08,1.46,2.25,2,3.5-1.52.38-3.19.55-5,.5,2.38.97,2.04,1.64-1,2,.84,1.67.34,1.83-1.5.5-.42,1.26-1.25,1.92-2.5,2-5.52-5.25-11.19-10.25-17-15,1.62.54,3.28.87,5,1,.16-2.03,0-4.03-.5-6-1.81,1.26-3.65,1.26-5.5,0-1.56-2.18-2.23-4.35-2-6.5,2.56-.92,4.73-.42,6.5,1.5.31-.81.81-1.47,1.5-2,1.5.55,3.17.55,5,0-.22,1.18.11,2.18,1,3,.61-3.58,1.95-3.58,4,0,3.36-2.5,4.52-1.5,3.5,3-1.26-.14-2.43-.14-3.5,0,.31.81.81,1.47,1.5,2,1.01-.84,2.18-1.17,3.5-1,.7-2.58,1.03-4.92,1-7,.7,1.6,1.87,2.93,3.5,4,.62-.95.45-1.78-.5-2.5,3.32-1.91,6.82-1.74,10.5.5.31-.81.81-1.47,1.5-2,.93,1.14,1.76,1.14,2.5,0,1.33.67,2.67,1.33,4,2,.8-1.3,1.97-1.97,3.5-2,5.15.16,9.99.16,14.5,0,.33.67.67,1.33,1,2,.42-1.17,1.09-2.17,2-3,2.42.85,4.92,1.52,7.5,2,4.88-1.26,9.72-1.26,14.5,0,1.69-2.63,2.86-2.3,3.5,1,1.2-.35,1.2-.85,0-1.5,1.32.15,2.49-.02,3.5-.5.62.95.45,1.78-.5,2.5,1.43.46,2.6,1.3,3.5,2.5.47-1.75,1.14-3.41,2-5,.33.67.67,1.33,1,2,2.32-1.28,2.82-2.94,1.5-5,.67,0,1-.33,1-1Z"/>
    <path class="cls-2" d="M392,101.06c-.47,1.41-1.47,2.07-3,2,.47-1.41,1.47-2.07,3-2Z"/>
    <path class="cls-2" d="M383,105.06c-6.94,1.47-14.11,2.14-21.5,2-4.68,0-9.18-.33-13.5-1,11.52-.15,23.18-.49,35-1Z"/>
    <path class="cls-2" d="M498,113.06c.93,1.07,1.27,2.4,1,4h-8c2.11-.97,4.44-1.3,7-1v-3Z"/>
    <path class="cls-1" d="M158,231.06c-51.17,1.16-102.5,1.33-154,.5-3.92-1.78-4.92-4.62-3-8.5.41,5.98,1.91,6.31,4.5,1,1.67,1.33,3.33,1.33,5,0,1.77,1.49,1.94,3.16.5,5,1.92,1.14,3.92,1.31,6,.5-.33-.33-.67-.67-1-1,1.06-1.3,2.23-2.46,3.5-3.5.77.15,1.44.48,2,1,1.76-1.44,3.76-2.44,6-3,.33.67.67,1.33,1,2,3.47-1.3,6.97-1.3,10.5,0,1.1-1.13.77-1.96-1-2.5,1.26-1.11,2.43-1.28,3.5-.5.67-2.67,1.33-2.67,2,0,.67-.67,1.33-1.33,2-2,1.49,3.45,3.49,4.12,6,2,.42,1.17,1.09,2.17,2,3,2.46-1.71,5.12-3.04,8-4,3.43-.09,6.59.24,9.5,1,.67-.67,1.33-1.33,2-2,.87,2.62,2.71,2.62,5.5,0,1.09.79,2.25,1.46,3.5,2,2.14-.9,4.3-1.9,6.5-3,2.11,2.42,4.11,2.42,6,0,1.67,3.16,3.17,3.32,4.5.5,1.77-1.02,3.44-1.19,5-.5,1.17-2.97,2.5-3.3,4-1,1.54-1.25,3.04-1.25,4.5,0,4.16-2.34,8.66-3.5,13.5-3.5l-1-1c3.04-.36,3.38-1.03,1-2,1.5-2.17,2.67-2,3.5.5.25-1.12.75-2.12,1.5-3,1.78.07,3.61.4,5.5,1,.91-.83,1.58-1.83,2-3,5.01,1.76,9.01.09,12-5,1.18,1.23,2.35,1.23,3.5,0-.88-.75-1.88-1.25-3-1.5.82-1.69,1.82-1.85,3-.5,1.73-4.14,4.39-7.48,8-10-.33-2-.67-4-1-6,1.03.2,2.03-.3,3-1.5-.95-.72-1.12-1.55-.5-2.5.98,1.56,1.81,3.23,2.5,5,1.01-.44,1.01-1.1,0-2,.88-.75,1.88-1.25,3-1.5-.92-.37-1.75-.87-2.5-1.5-.31-2.06-.81-4.06-1.5-6,.52-.69,1.19-1.19,2-1.5-.63-.75-1.13-1.58-1.5-2.5-.72.95-1.55,1.12-2.5.5.95-.72,1.12-1.55.5-2.5-1.4-.73-2.9-1.23-4.5-1.5-.64-2.74-1.81-5.24-3.5-7.5l-1,1c-.67-1-.67-2,0-3l1,1c.5-1.17,1.33-2,2.5-2.5-2.2-.82-4.03-.32-5.5,1.5-.45-1.72-1.28-2.39-2.5-2,1.78-.82,2.44-1.98,2-3.5-3.99-.5-7.99-.67-12-.5-1.29.24-2.29-.1-3-1,4.97-4.8,10.14-9.47,15.5-14,1.56-1.72,2.39-3.72,2.5-6,1.25-.08,2.08-.74,2.5-2,1.84,1.33,2.34,1.17,1.5-.5,3.04-.36,3.38-1.03,1-2,1.81.05,3.48-.12,5-.5-.54-1.25-1.21-2.42-2-3.5,1.24-.46,2.08.04,2.5,1.5.33-1,.67-2,1-3,.62,1.62,1.62,2.95,3,4,.48-.95.65-1.95.5-3,1.37-.16,2.71.01,4,.5-2.96.84-3.3,1.84-1,3-1.26.92-2.59,1.76-4,2.5.17.33.33.67.5,1,1.4-1.32,2.4-.98,3,1,2.14-1.53,3.3-3.19,3.5-5,2.07.45,3.73,1.45,5,3-3.52,1.33-3.85,3.16-1,5.5-3.54,2.42-6.87,4.42-10,6,.84,1.67.34,1.83-1.5.5-1.12,1.05-1.62,2.22-1.5,3.5,1.5.51,2.66,0,3.5-1.5,2.61,2.61,4.94,2.27,7-1l1.5,1.5c-.84,1.67-.34,1.83,1.5.5,2.85,2.72,4.52,5.72,5,9l1-1c1.28,1.07,1.62,2.4,1,4,1-1.33,2-1.33,3,0,.46,1.24-.04,2.08-1.5,2.5,1.27.31,2.43.81,3.5,1.5,2.82-1.08,2.99-2.25.5-3.5,1.17-.5,2-1.33,2.5-2.5.48.95.65,1.95.5,3,4.73-1.38,5.06-.55,1,2.5l1.5,1.5c1.01-.84,2.18-1.17,3.5-1,.22,4.03-.95,4.69-3.5,2-1.11,1.21-2.28,1.21-3.5,0-1.82.61-3.49,1.77-5,3.5.93,1.13,1.93,2.3,3,3.5,1.44-.22,2.77-.72,4-1.5-3.55-2.33-2.89-3.33,2-3-1.32,1.4-.98,2.4,1,3-2.67.67-2.67,1.33,0,2-1.33.67-1.33,1.33,0,2-.67.33-1.33.67-2,1,1.48,1.57,3.15,2.91,5,4-1.29.49-2.63.66-4,.5.15,1.05-.02,2.05-.5,3-.69-2.39-1.69-2.39-3,0,.08-1.24-.09-2.24-.5-3-1,1.33-2,2.67-3,4,1.48.98,2.82,2.15,4,3.5-1.27.31-2.43.81-3.5,1.5-.42-1.46-1.26-1.96-2.5-1.5,2.72,1.65,3.05,3.32,1,5,1.23,1.18,1.23,2.35,0,3.5-1.47-.88-2.3-2.21-2.5-4-.37,1.41-1.2,2.41-2.5,3-1.22-1.21-2.39-1.21-3.5,0-1.09-2.43-1.59-2.1-1.5,1h5v3c-1.7-.16-3.37,0-5,.5,4.52,4.1,3.86,6.43-2,7l3,3c-3.36,2.04-6.69,3.37-10,4,.67.33,1.33.67,2,1-1.33.67-1.33,1.33,0,2-1.59.86-3.25,1.53-5,2l1,1c-2.67.67-2.67,1.33,0,2-.59,1.51-1.26,3.01-2,4.5-1.23-1.15-1.23-2.32,0-3.5-3.72-3.31-4.72-2.97-3,1-2.36.66-4.86,1.16-7.5,1.5-.67.67-.67,1.33,0,2,1.09-2.16,2.25-2.32,3.5-.5-1.88,1.54-3.38,3.38-4.5,5.5l-4-4c-3.36,1.24-3.19,2.08.5,2.5l-3.5,3.5c-1.67-1-3.33-2-5-3-1.02,1.13-1.68.8-2-1-.69.86-1.52,1.52-2.5,2-3.18-.13-6.34-.47-9.5-1-.33.67-.67,1.33-1,2-1.31-2.39-2.31-2.39-3,0-1.68-.56-3.01-1.56-4-3-.99,1.44-2.32,2.44-4,3-2.33-1.53-4.33-1.2-6,1-.33-.67-.67-1.33-1-2-.67,1.08-1.67,1.74-3,2-1.87-.75-3.53-1.08-5-1-4.11.92-8.27,1.76-12.5,2.5,22.33.5,44.66.67,67,.5Z"/>
    <path class="cls-1" d="M248,105.06c6.96,5.79,13.8,11.79,20.5,18,2.08,4.1,1.42,7.77-2,11-13.67,12.84-27.17,25.84-40.5,39-4.56.22-5.23-1.28-2-4.5l-1-1c2-.33,4-.67,6-1-.67-.33-1.33-.67-2-1,2.24-2.35,3.41-1.85,3.5,1.5.76-2.27.59-4.44-.5-6.5.69-1.07,1.19-2.23,1.5-3.5.41,3.27,1.91,3.6,4.5,1-.52-.69-1.19-1.19-2-1.5,1.33-.33,2.67-.67,4-1-.67-.33-1.33-.67-2-1,2.97-1.22,3.64-3.22,2-6,1.43-.46,2.6-1.3,3.5-2.5.33.67.67,1.33,1,2,.85-1.62,1.85-1.96,3-1,.57-3.63-.26-4.3-2.5-2-.33-.67-.67-1.33-1-2-.69.52-1.19,1.19-1.5,2-.31-.81-.81-1.48-1.5-2-1,.67-2,1.33-3,2-2.27-1.32-4.6-2.48-7-3.5,1.26-.92,2.59-1.76,4-2.5-1.39.39-2.39-.44-3-2.5,1.17-3.17,2.67-3.33,4.5-.5,1.05-1.02,2.22-1.18,3.5-.5-1.2.65-1.2,1.15,0,1.5,1.23-.65,2.57-.81,4-.5-2.97-1.51-3.31-3.17-1-5-1.57-1.84-3.07-1.67-4.5.5-1.54-1.08-1.54-2.41,0-4,.89,1.21,1.73,1.21,2.5,0-1.21-1.57-2.88-2.4-5-2.5,1.12-.25,2.12-.75,3-1.5-.67-.33-1.33-.67-2-1,1.33-1,2.67-2,4-3,1.09,1.37.76,2.54-1,3.5,1.74,1.99,3.07,1.65,4-1-.95-.72-1.12-1.55-.5-2.5,1.96-.95,3.62-2.29,5-4,.33.33.67.67,1,1,1.49-.75,1.65-1.59.5-2.5,2.27.67,4.44,1.83,6.5,3.5.48-.95.65-1.95.5-3-3,.33-4.33-1-4-4h-4v4c-1.7.16-3.37,0-5-.5,1.48-1.19,2.81-1.69,4-1.5-1.26-.88-2.43-1.88-3.5-3-.33.67-.67,1.33-1,2-.31-2.31-1.14-4.47-2.5-6.5l1.5-1.5c2.07,2.92,3.4,2.58,4-1,.34,2.69,1.5,3.36,3.5,2Z"/>
    <path class="cls-2" d="M370,129.06c-8-1.33-16-1.33-24,0,3.61-1.32,7.61-1.99,12-2,4.39,0,8.39.68,12,2Z"/>
    <path class="cls-2" d="M458,134.06c-1.53.81-3.19,1.48-5,2,1.05-1.76,2.72-2.42,5-2Z"/>
    <path class="cls-1" d="M140,151.06c4.01-.17,8.01,0,12,.5.44,1.52-.22,2.68-2,3.5,1.22-.39,2.05.28,2.5,2,1.47-1.82,3.3-2.32,5.5-1.5-1.17.5-2,1.33-2.5,2.5l-1-1c-.67,1-.67,2,0,3l1-1c1.69,2.26,2.86,4.76,3.5,7.5,1.6.27,3.1.77,4.5,1.5.62.95.45,1.78-.5,2.5.95.62,1.78.45,2.5-.5.37.92.87,1.75,1.5,2.5-.81.31-1.48.81-2,1.5.69,1.94,1.19,3.94,1.5,6,.75.63,1.58,1.13,2.5,1.5-1.12.25-2.12.75-3,1.5,1.01.9,1.01,1.56,0,2-.69-1.77-1.52-3.44-2.5-5-.62.95-.45,1.78.5,2.5-.97,1.2-1.97,1.7-3,1.5.33,2,.67,4,1,6-3.61,2.52-6.27,5.86-8,10-1.18-1.35-2.18-1.19-3,.5,1.12.25,2.12.75,3,1.5-1.15,1.23-2.32,1.23-3.5,0-2.99,5.09-6.99,6.76-12,5-.42,1.17-1.09,2.17-2,3-1.89-.6-3.72-.93-5.5-1-.75.88-1.25,1.88-1.5,3-.83-2.5-2-2.67-3.5-.5,2.38.97,2.04,1.64-1,2l1,1c-4.84,0-9.34,1.16-13.5,3.5-1.46-1.25-2.96-1.25-4.5,0-1.5-2.3-2.83-1.97-4,1-1.56-.69-3.23-.52-5,.5-1.33,2.82-2.83,2.66-4.5-.5-1.89,2.42-3.89,2.42-6,0-2.2,1.1-4.36,2.1-6.5,3-1.25-.54-2.41-1.21-3.5-2-2.79,2.62-4.63,2.62-5.5,0-.67.67-1.33,1.33-2,2-2.91-.76-6.07-1.09-9.5-1-2.88.96-5.54,2.29-8,4-.91-.83-1.58-1.83-2-3-2.51,2.12-4.51,1.45-6-2-.67.67-1.33,1.33-2,2-.67-2.67-1.33-2.67-2,0-1.07-.78-2.24-.61-3.5.5,1.77.54,2.1,1.37,1,2.5-3.53-1.3-7.03-1.3-10.5,0-.33-.67-.67-1.33-1-2-2.24.56-4.24,1.56-6,3-.56-.52-1.23-.85-2-1-1.27,1.04-2.44,2.2-3.5,3.5.33.33.67.67,1,1-2.08.81-4.08.64-6-.5,1.44-1.84,1.27-3.51-.5-5-1.67,1.33-3.33,1.33-5,0-2.59,5.31-4.09,4.98-4.5-1,.33-1,1-1.67,2-2,2.08.03,3.92-.64,5.5-2,3.79,2.94,6.79,2.27,9-2,1,.67,2,1.33,3,2,5.82-.07,11.98-.74,18.5-2,2.37,1.58,4.37,1.25,6-1,1.98-.2,3.98.47,6,2,1.56-.57,3.06-1.24,4.5-2,.31.81.81,1.48,1.5,2,4.44-.69,9.1-1.69,14-3,1.6.11,3.26.44,5,1,1.63-2.25,3.63-2.58,6-1,1.53-.03,2.7-.7,3.5-2,3.31,1.79,6.31,1.12,9-2,.9,1.83,2.23,3.16,4,4,1.73-.15,1.89-.81.5-2,2.68-1.05,5.18-2.39,7.5-4,1,.67,2,1.33,3,2,.94-1.56,2.11-2.9,3.5-4,2.82-.07,5.65-.07,8.5,0,1.26-.26,2.26-.93,3-2,1.57.56,2.9-.11,4-2,.41.46.91.79,1.5,1,2.04-1.85,4.21-2.52,6.5-2,.67-.67.67-1.33,0-2-1.51-.59-3.01-1.26-4.5-2,.35-1.2.85-1.2,1.5,0,1.32-2.53,2.48-2.53,3.5,0-.18-1.46.66-2.79,2.5-4,1.15.96,2.15.62,3-1,.42,3.69,1.26,3.86,2.5.5-1.05-1.72-.39-2.72,2-3-1.23-1.18-1.23-2.35,0-3.5.76,1.31,1.76,1.81,3,1.5-.81-4.36.52-8.53,4-12.5-1.81-1.06-4.14-1.89-7-2.5.95-.48,1.95-.65,3-.5,1.72-4.5.06-6.5-5-6v-3c-3.5.24-3.83-.59-1-2.5-1.5-1.83-3-3.67-4.5-5.5-.72,1.76-1.89,2.59-3.5,2.5,1.16-2.64,2.49-5.14,4-7.5Z"/>
    <path class="cls-1" d="M87,157.06c1.39.49,2.39,1.99,3,4.5-1.95,2.7-4.29,5.7-7,9-9.65,6.4-20.31,8.4-32,6,1.2-.65,1.2-1.15,0-1.5-.92.63-1.92.96-3,1,2.97-2.64,5.97-5.3,9-8,1.53,2.38,3.03,2.38,4.5,0,1,.67,2,1.33,3,2,1.78-1.89,3.78-3.56,6-5,2.24.68,4.41.18,6.5-1.5,1.94-.91,2.94-2.41,3-4.5-2.03.16-4.03,0-6-.5,4.2-1.37,8.53-1.87,13-1.5Z"/>
    <path class="cls-1" d="M95,156.06h16v1c-5.9.35-6.23,1.51-1,3.5-1.25,2.93-2.25,5.93-3,9,1.66.73,2.16,1.89,1.5,3.5-1.84-1.33-2.34-1.17-1.5.5-2.74,1.61-4.9,3.78-6.5,6.5-1.07-.78-2.24-.61-3.5.5.37,1.76-.47,3.26-2.5,4.5-.25-1.12-.75-2.12-1.5-3-2.36,1.52-4.19,3.52-5.5,6-1.33-2.67-2.67-2.67-4,0-2.78-.95-4.78.05-6,3-1.4-.55-2.73-.88-4-1-.69.86-1.52,1.52-2.5,2-3.1.32-5.93-.02-8.5-1-.67.67-1.33,1.33-2,2-3.79.3-7.62.3-11.5,0-.1,3.81-.76,3.81-2,0-.67.67-1.33,1.33-2,2-1.27-.93-2.6-1.1-4-.5,1.2.65,1.2,1.15,0,1.5-1.45-1.15-2.45-2.65-3-4.5.67-.99.67-2.15,0-3.5,1.53-1.74,3.53-2.74,6-3,.9,1.1,1.73,1.1,2.5,0,.31.81.81,1.48,1.5,2,2.77-1.75,5.6-2.08,8.5-1,2.62-2.57,5.28-2.57,8,0-.08-1.24.09-2.24.5-3,3.3.56,6.47.56,9.5,0,2.76-1.94,5.43-3.6,8-5,1.57.56,2.9-.11,4-2,1.84,1.33,2.34,1.17,1.5-.5.97-1.76,2.14-2.26,3.5-1.5,3.04-3.15,5.54-6.65,7.5-10.5-1.33-1-1.33-2,0-3-1.17-.5-2-1.33-2.5-2.5-1.11,1.21-1.61.88-1.5-1v-1Z"/>
    <path class="cls-2" d="M436,156.06c1.41.47,2.07,1.47,2,3-1.41-.47-2.07-1.47-2-3Z"/>
    <path class="cls-1" d="M95,157.06c-.11,1.88.39,2.21,1.5,1,.5,1.17,1.33,2,2.5,2.5-1.33,1-1.33,2,0,3-1.96,3.85-4.46,7.35-7.5,10.5-1.36-.76-2.53-.26-3.5,1.5.84,1.67.34,1.83-1.5.5-1.1,1.89-2.43,2.56-4,2-2.57,1.4-5.24,3.06-8,5-3.03.56-6.2.56-9.5,0-.41.76-.58,1.76-.5,3-2.72-2.57-5.38-2.57-8,0-2.9-1.08-5.73-.75-8.5,1-.69-.52-1.19-1.19-1.5-2-.77,1.1-1.6,1.1-2.5,0,2.36-3.52,5.19-4.19,8.5-2,1.33-2.67,2.67-2.67,4,0,2.04-1.57,4.37-2.57,7-3,1.53.44,3.03.78,4.5,1,4.28-2.09,8.61-3.59,13-4.5,3.08-1.87,5.75-4.21,8-7-.33-.33-.67-.67-1-1,1.33-.33,2.67-.67,4-1-2.38-.97-2.04-1.64,1-2-.96-1.15-.62-2.15,1-3-1.33-1-1.33-2,0-3-2.55-1.52-2.22-2.35,1-2.5Z"/>
    <path class="cls-1" d="M137,150.06c.71.9,1.71,1.24,3,1-1.51,2.36-2.84,4.86-4,7.5,1.61.09,2.78-.74,3.5-2.5,1.5,1.83,3,3.67,4.5,5.5-2.83,1.91-2.5,2.74,1,2.5v3c5.06-.5,6.72,1.5,5,6-1.05-.15-2.05.02-3,.5,2.86.61,5.19,1.44,7,2.5-3.48,3.97-4.81,8.14-4,12.5-1.24.31-2.24-.19-3-1.5-1.23,1.15-1.23,2.32,0,3.5-2.39.28-3.05,1.28-2,3-1.24,3.36-2.08,3.19-2.5-.5-.85,1.62-1.85,1.96-3,1-1.84,1.21-2.68,2.54-2.5,4-1.02-2.53-2.18-2.53-3.5,0-.65-1.2-1.15-1.2-1.5,0,1.49.74,2.99,1.41,4.5,2,.67.67.67,1.33,0,2-2.29-.52-4.46.15-6.5,2-.59-.21-1.09-.54-1.5-1-1.1,1.89-2.43,2.56-4,2-.74,1.07-1.74,1.74-3,2-2.85-.07-5.68-.07-8.5,0-1.39,1.1-2.56,2.44-3.5,4-1-.67-2-1.33-3-2-2.32,1.61-4.82,2.95-7.5,4,1.39,1.19,1.23,1.85-.5,2-1.77-.84-3.1-2.17-4-4-2.69,3.12-5.69,3.79-9,2-.8,1.3-1.97,1.97-3.5,2-2.37-1.58-4.37-1.25-6,1-1.74-.56-3.4-.89-5-1-4.9,1.31-9.56,2.31-14,3-.69-.52-1.19-1.19-1.5-2-1.44.76-2.94,1.43-4.5,2-2.02-1.53-4.02-2.2-6-2-1.63,2.25-3.63,2.58-6,1-6.52,1.26-12.68,1.93-18.5,2-1-.67-2-1.33-3-2-2.21,4.27-5.21,4.94-9,2-1.58,1.36-3.42,2.03-5.5,2,4.67-5.33,9.67-10.33,15-15,2.65.24,4.48,1.57,5.5,4,1.53-.44,3.03-.78,4.5-1-1.33-.67-2.67-1.33-4-2,3.89-.37,7.73.63,11.5,3,3.88-.43,6.88-1.43,9-3,2.24.87,4.24.87,6,0,.31.81.81,1.48,1.5,2,2.3-.93,4.63-1.76,7-2.5-2.23-.56-4.23-1.56-6-3,.5-.17,1-.33,1.5-.5,2.32,1.37,4.82,2.04,7.5,2v-3c1.32.17,2.49-.16,3.5-1,.67,1.33.67,2.67,0,4-1.6.57-2.27,1.57-2,3,2.33-.67,4.67-1.33,7-2,2.4.43,4.73-.23,7-2,2.29,3.31,4.96,3.31,8,0,2.06.64,4.22.47,6.5-.5,1.17-.5,2-1.33,2.5-2.5,1.33.67,2.67,1.33,4,2,.35-2.31,1.35-2.64,3-1,.5-.17,1-.33,1.5-.5-1.33-.67-1.33-1.33,0-2,1.78.98,3.44.65,5-1-.67-.33-1.33-.67-2-1,1.58-.44,2.91-1.27,4-2.5.33.67.67,1.33,1,2,.69-.52,1.19-1.19,1.5-2,.33.33.67.67,1,1,1-1.33,2-2.67,3-4,.33.33.67.67,1,1,.33-1,.67-2,1-3,.67,1.33,1.33,1.33,2,0,.32-1.41-.02-2.74-1-4-.33.67-.67,1.33-1,2-1.62-.6-3.12-1.27-4.5-2,.44-.73.61-1.73.5-3,.83,1,1.67,2,2.5,3-.39-1.39.44-2.39,2.5-3,1.56,2.46,2.56,5.12,3,8,2.15-3.95,4.81-8.62,8-14,.75-.63,1.58-1.13,2.5-1.5-.74-2.24-.74-4.24,0-6-1.38-2.54-2.54-2.71-3.5-.5-1.66-1.32-2.83-2.98-3.5-5-1.77-.69-3.44-1.52-5-2.5.33-.33.67-.67,1-1-1.44-.22-2.77-.72-4-1.5,2.94-1.44,5.94-2.77,9-4,3.62-1.14,6.95-2.81,10-5Z"/>
    <path class="cls-1" d="M87,156.06v1c-4.47-.37-8.8.13-13,1.5,1.97.49,3.97.66,6,.5-.06,2.09-1.06,3.59-3,4.5-2.09,1.68-4.26,2.18-6.5,1.5-2.22,1.44-4.22,3.11-6,5-1-.67-2-1.33-3-2-1.47,2.38-2.97,2.38-4.5,0,7.17-10.64,17.17-14.64,30-12Z"/>
    <path class="cls-2" d="M630,172.06c-.72-1.72-1.39-3.55-2-5.5,1.07-1.16.73-1.99-1-2.5.62-1.13,1.46-2.13,2.5-3,.5,3.65.66,7.32.5,11Z"/>
    <path class="cls-1" d="M111,157.06c-.13.74.04,1.41.5,2,1.05-1.02,2.22-1.18,3.5-.5-.67.33-1.33.67-2,1,2.67,1.67,2.67,3.33,0,5-.17,2.26-.17,4.59,0,7-.67.67-1.33,1.33-2,2,1.21.89,1.21,1.73,0,2.5-.59-.21-1.09-.54-1.5-1-.67,1.33-1.33,2.67-2,4-3.2-.74-3.36.1-.5,2.5-4.93.05-5.93,1.88-3,5.5-3.04,3.87-5.2,3.21-6.5-2-.44,2.18-1.44,2.85-3,2-3.27,2.26-3.11,3.09.5,2.5-1.33.67-1.33,1.33,0,2-1.43.46-2.6,1.3-3.5,2.5-1.83-.8-3.99-1.8-6.5-3-3.75.25-5.58,2.25-5.5,6-.48-.95-.65-1.95-.5-3h-3v3c-1.82-.72-2.48-1.72-2-3-2.53.07-5.03.07-7.5,0-3.14.66-5.97,1.99-8.5,4-1.39-1.7-2.89-2.37-4.5-2-.33,1-.67,2-1,3-2.27.36-4.43-.3-6.5-2-1.91,2.09-4.08,2.09-6.5,0,.2,1.63.2,3.29,0,5-1.33-2-2.67-4-4-6-2.11,2.42-4.11,2.42-6,0-.67.75-1.5,1.09-2.5,1,2.67-3.33,5.67-6.33,9-9h2c.67,1.35.67,2.51,0,3.5.55,1.85,1.55,3.35,3,4.5,1.2-.35,1.2-.85,0-1.5,1.4-.6,2.73-.43,4,.5.67-.67,1.33-1.33,2-2,1.24,3.81,1.9,3.81,2,0,3.88.3,7.71.3,11.5,0,.67-.67,1.33-1.33,2-2,2.57.98,5.4,1.32,8.5,1,.98-.48,1.81-1.14,2.5-2,1.27.12,2.6.45,4,1,1.22-2.95,3.22-3.95,6-3,1.33-2.67,2.67-2.67,4,0,1.31-2.48,3.14-4.48,5.5-6,.75.88,1.25,1.88,1.5,3,2.03-1.24,2.87-2.74,2.5-4.5,1.26-1.11,2.43-1.28,3.5-.5,1.6-2.72,3.76-4.89,6.5-6.5-.84-1.67-.34-1.83,1.5-.5.66-1.61.16-2.77-1.5-3.5.75-3.07,1.75-6.07,3-9-5.23-1.99-4.9-3.15,1-3.5Z"/>
    <path class="cls-2" d="M449,168.06c1.53-.07,2.53.59,3,2-1.53.07-2.53-.59-3-2Z"/>
    <path class="cls-1" d="M87,156.06h8v1c-3.22.15-3.55.98-1,2.5-1.33,1-1.33,2,0,3-1.62.85-1.96,1.85-1,3-3.04.36-3.38,1.03-1,2-1.33.33-2.67.67-4,1,.33.33.67.67,1,1-2.25,2.79-4.92,5.13-8,7-4.39.91-8.72,2.41-13,4.5-1.47-.22-2.97-.56-4.5-1-2.63.43-4.96,1.43-7,3-1.33-2.67-2.67-2.67-4,0-3.31-2.19-6.14-1.52-8.5,2-2.47.26-4.47,1.26-6,3h-2c3.67-4.33,7.67-8.33,12-12,1.08-.04,2.08-.37,3-1,1.2.35,1.2.85,0,1.5,11.69,2.4,22.35.4,32-6,2.71-3.3,5.05-6.3,7-9-.61-2.51-1.61-4.01-3-4.5v-1Z"/>
    <path class="cls-1" d="M127,155.06c-3.06,1.23-6.06,2.56-9,4,1.23.78,2.56,1.28,4,1.5-.33.33-.67.67-1,1,1.56.98,3.23,1.81,5,2.5.67,2.02,1.84,3.68,3.5,5,.96-2.21,2.12-2.04,3.5.5-.74,1.76-.74,3.76,0,6-.92.37-1.75.87-2.5,1.5-3.19,5.38-5.85,10.05-8,14-.44-2.88-1.44-5.54-3-8-2.06.61-2.89,1.61-2.5,3-.83-1-1.67-2-2.5-3,.11,1.27-.06,2.27-.5,3-2.83-2.86-3.5-2.36-2,1.5-.92,1.81-1.76,1.65-2.5-.5-.5,1.17-1.33,2-2.5,2.5.81.31,1.47.81,2,1.5-1.02.85-1.86,1.85-2.5,3-.67-1.33-1.33-1.33-2,0-.33-.67-.67-1.33-1-2-1.39,1.05-2.39,2.38-3,4-2.18-.61-4.18.06-6,2-.46-1.24.04-2.08,1.5-2.5l-1.5-1.5c-.78,1.23-1.78,2.23-3,3-1.63-1.05-3.3-2.05-5-3-.77,1.35-1.94,2.18-3.5,2.5,2.76,1.54,2.6,2.71-.5,3.5-1.8-1.27-3.63-1.27-5.5,0-.02-.89-.35-1.89-1-3v-3h3c-.15,1.05.02,2.05.5,3-.08-3.75,1.75-5.75,5.5-6,2.51,1.2,4.67,2.2,6.5,3,.9-1.2,2.07-2.04,3.5-2.5-1.33-.67-1.33-1.33,0-2-3.61.59-3.77-.24-.5-2.5,1.56.85,2.56.18,3-2,1.3,5.21,3.46,5.87,6.5,2-2.93-3.62-1.93-5.45,3-5.5-2.86-2.4-2.7-3.24.5-2.5.67-1.33,1.33-2.67,2-4,.41.46.91.79,1.5,1,1.21-.77,1.21-1.61,0-2.5.67-.67,1.33-1.33,2-2-.17-2.41-.17-4.74,0-7,2.67-1.67,2.67-3.33,0-5,.67-.33,1.33-.67,2-1-1.28-.68-2.45-.52-3.5.5-.46-.59-.63-1.26-.5-2v-1c5.36.03,10.69-.31,16-1Z"/>
    <path class="cls-1" d="M114,186.06c1.38.73,2.88,1.4,4.5,2,.33-.67.67-1.33,1-2,.98,1.26,1.32,2.59,1,4-.67,1.33-1.33,1.33-2,0-.33,1-.67,2-1,3-.33-.33-.67-.67-1-1-1,1.33-2,2.67-3,4-.33-.33-.67-.67-1-1-.31.81-.81,1.48-1.5,2-.33-.67-.67-1.33-1-2-1.09,1.23-2.42,2.06-4,2.5.67.33,1.33.67,2,1-1.56,1.65-3.22,1.98-5,1-1.33.67-1.33,1.33,0,2-.5.17-1,.33-1.5.5-1.65-1.64-2.65-1.31-3,1-1.33-.67-2.67-1.33-4-2-.5,1.17-1.33,2-2.5,2.5-2.28.97-4.44,1.14-6.5.5-3.04,3.31-5.71,3.31-8,0-2.27,1.77-4.6,2.43-7,2-2.33.67-4.67,1.33-7,2-.27-1.43.4-2.43,2-3,.67-1.33.67-2.67,0-4-1.01.84-2.18,1.17-3.5,1v3c-2.68.04-5.18-.63-7.5-2-.5.17-1,.33-1.5.5,1.77,1.44,3.77,2.44,6,3-2.37.74-4.7,1.57-7,2.5-.69-.52-1.19-1.19-1.5-2-1.76.87-3.76.87-6,0-2.12,1.57-5.12,2.57-9,3-3.77-2.37-7.61-3.37-11.5-3,1.33.67,2.67,1.33,4,2-1.47.22-2.97.56-4.5,1-1.02-2.43-2.85-3.76-5.5-4,2.67-3.33,5.67-6.33,9-9,1,.09,1.83-.25,2.5-1,1.89,2.42,3.89,2.42,6,0,1.33,2,2.67,4,4,6,.2-1.71.2-3.37,0-5,2.42,2.09,4.59,2.09,6.5,0,2.07,1.7,4.23,2.36,6.5,2,.33-1,.67-2,1-3,1.61-.37,3.11.3,4.5,2,2.53-2.01,5.36-3.34,8.5-4,2.47.07,4.97.07,7.5,0-.48,1.28.18,2.28,2,3,.65,1.11.98,2.11,1,3,1.87-1.27,3.7-1.27,5.5,0,3.1-.79,3.26-1.96.5-3.5,1.56-.32,2.73-1.15,3.5-2.5,1.7.95,3.37,1.95,5,3,1.22-.77,2.22-1.77,3-3l1.5,1.5c-1.46.42-1.96,1.26-1.5,2.5,1.82-1.94,3.82-2.61,6-2,.61-1.62,1.61-2.95,3-4,.33.67.67,1.33,1,2,.67-1.33,1.33-1.33,2,0,.64-1.15,1.48-2.15,2.5-3-.53-.69-1.19-1.19-2-1.5,1.17-.5,2-1.33,2.5-2.5.74,2.15,1.58,2.31,2.5.5-1.5-3.86-.83-4.36,2-1.5Z"/>
  </g>
</svg>